# xmcd
#
# Track frame offsets:
#	150
#	17608
#	33790
#	51403
#	64348
#	79587
#	94089
#	110993
#	128746
#	147321
#	165751
#	183653
#	198115
#	213866
#	228414
#
# Disc length: 3285 seconds
#
# Revision: 1
# Processed by: cddbd v1.5.2PL0 Copyright (c) Steve Scherf et al.
# Submitted via: audiograbber 1.83.01
#
DISCID=c70cd30f
DTITLE=McEntire, Reba - CB60053
DYEAR=1900
DGENRE=Karaoke
TTITLE0=McEntire, Reba - CATHY'S CLOWN
TTITLE1=McEntire, Reba - HOW BLUE
TTITLE2=McEntire, Reba - IF I HAD ONLY KNOWN
TTITLE3=McEntire, Reba - LITTLE ROCK
TTITLE4=McEntire, Reba - ONE PROMISE TOO LATE
TTITLE5=McEntire, Reba - RUMOR HAS IT
TTITLE6=McEntire, Reba - SOMEBODY SHOULD LEAVE
TTITLE7=McEntire, Reba - THE GREATEST MAN I NEVER KNEW
TTITLE8=McEntire, Reba - THE HEART IS A LONELY HUNTER
TTITLE9=McEntire, Reba - THE LAST ONE TO KNOW
TTITLE10=McEntire, Reba - TILL YOU LOVE ME
TTITLE11=McEntire, Reba - WALK ON
TTITLE12=McEntire, Reba - WHAT AM I GONNA DO ABOUT YOU
TTITLE13=McEntire, Reba - WHOEVER'S IN NEW ENGLAND
TTITLE14=McEntire, Reba - YOU LIE
EXTD=
EXTT0=
EXTT1=
EXTT2=
EXTT3=
EXTT4=
EXTT5=
EXTT6=
EXTT7=
EXTT8=
EXTT9=
EXTT10=
EXTT11=
EXTT12=
EXTT13=
EXTT14=
PLAYORDER=
